<!DOCTYPE svg PUBLIC "-//W3C//DTD SVG 1.1//EN" "http://www.w3.org/Graphics/SVG/1.1/DTD/svg11.dtd">

<!-- Uploaded to: SVG Repo, www.svgrepo.com, Transformed by: SVG Repo Mixer Tools -->
<svg fill="currentColor" width="180px" height="180px" viewBox="0 0 20 20" xmlns="http://www.w3.org/2000/svg" stroke="#ffffff" stroke-width="0.0002">

<g id="SVGRepo_bgCarrier" stroke-width="0"/>

<g id="SVGRepo_tracerCarrier" stroke-linecap="round" stroke-linejoin="round"/>

<g id="SVGRepo_iconCarrier">

<path d="M13.6 13.47A4.99 4.99 0 0 1 5 10a5 5 0 0 1 8-4V5h2v6.5a1.5 1.5 0 0 0 3 0V10a8 8 0 1 0-4.42 7.16l.9 1.79A10 10 0 1 1 20 10h-.18.17v1.5a3.5 3.5 0 0 1-6.4 1.97zM10 13a3 3 0 1 0 0-6 3 3 0 0 0 0 6z"/>

</g>

</svg>