<?xml version="1.0" encoding="UTF-8" standalone="no" ?>
<!DOCTYPE svg PUBLIC "-//W3C//DTD SVG 1.1//EN" "http://www.w3.org/Graphics/SVG/1.1/DTD/svg11.dtd">
<svg xmlns="http://www.w3.org/2000/svg" xmlns:xlink="http://www.w3.org/1999/xlink" version="1.1" width="800" height="800" viewBox="0 0 640 640" xml:space="preserve">
<desc>Created with Fabric.js 5.3.0</desc>
<defs>
</defs>
<g transform="matrix(39.57331731 0 0 39.57331731 -445.6771738361 15.903274344)" id="DAcVooitKQQWlaNYleBdh"  >
<path style="stroke: none; stroke-width: 1; stroke-dasharray: none; stroke-linecap: butt; stroke-dashoffset: 0; stroke-linejoin: miter; stroke-miterlimit: 4; fill: currentColor; fill-rule: nonzero; opacity: 1;"  transform=" translate(0, 0)" d="M -7.70813 7.00113 L -7.00113 7.70813 C -6.61213 8.09713 -5.9761299999999995 8.09713 -5.58713 7.70813 L -1.9121300000000003 4.03313 C -0.9201300000000003 4.646129999999999 0.2488699999999997 5.0001299999999995 1.4998699999999996 5.0001299999999995 C 5.0898699999999995 5.0001299999999995 7.99987 2.0901299999999994 7.99987 -1.4998700000000005 C 7.99987 -5.08987 5.0898699999999995 -7.9998700000000005 1.4998699999999996 -7.9998700000000005 C -2.0901300000000003 -7.9998700000000005 -5.00013 -5.08987 -5.00013 -1.4998700000000005 C -5.00013 -0.2488700000000006 -4.64613 0.9201299999999994 -4.033130000000001 1.9121299999999994 L -7.708130000000001 5.587129999999999 C -8.09713 5.9761299999999995 -8.09713 6.612129999999999 -7.708130000000001 7.001129999999999 z M 1.49987 3.00013 C 0.2978700000000001 3.00013 -0.8321299999999998 2.53213 -1.68213 1.68213 C -2.53213 0.8321299999999999 -3.00013 -0.2978700000000001 -3.00013 -1.49987 C -3.00013 -2.70187 -2.53213 -3.83187 -1.68213 -4.68187 C -0.8321299999999999 -5.53187 0.2978700000000001 -5.99987 1.49987 -5.99987 C 2.70187 -5.99987 3.83187 -5.53187 4.68187 -4.68187 C 5.53187 -3.83187 5.99987 -2.70187 5.99987 -1.49987 C 5.99987 -0.2978700000000001 5.53187 0.8321299999999998 4.68187 1.68213 C 3.83187 2.53213 2.70187 3.00013 1.49987 3.00013 z" stroke-linecap="round" />
</g>
<g transform="matrix(89.5825485989 0 0 89.5825485989 320 320)" id="SMX0DQHNsL3Pere66tOWE"  >
<path style="stroke: none; stroke-width: 1; stroke-dasharray: none; stroke-linecap: butt; stroke-dashoffset: 0; stroke-linejoin: miter; stroke-miterlimit: 4; fill: currentColor; fill-rule: evenodd; opacity: 1;"  transform=" translate(-7.5, -7.505)" d="M 7 8 L 7 4 L 8 4 L 8 8 L 7 8 Z M 8 10 L 8 11.01 L 7 11.01 L 7 10 L 8 10 Z" stroke-linecap="round" />
</g>
</svg>