<?xml version="1.0" standalone="no"?>
<!DOCTYPE svg PUBLIC "-//W3C//DTD SVG 20010904//EN"
 "http://www.w3.org/TR/2001/REC-SVG-20010904/DTD/svg10.dtd">
<svg version="1.0" xmlns="http://www.w3.org/2000/svg"
 width="2048.000000pt" height="2048.000000pt" viewBox="0 0 2048.000000 2048.000000"
 preserveAspectRatio="xMidYMid meet">
<metadata>
Created by potrace 1.14, written by Peter Selinger 2001-2017
</metadata>
<g transform="translate(0.000000,2048.000000) scale(0.100000,-0.100000)"
fill="#000000" stroke="none">
<path d="M11310 20179 c-134 -14 -185 -20 -201 -25 -10 -3 -30 -6 -45 -9 -177
-25 -504 -124 -740 -225 -203 -87 -485 -233 -729 -379 -88 -53 -164 -98 -170
-101 -5 -3 -36 -22 -68 -42 -31 -21 -60 -38 -62 -38 -3 0 -27 -15 -53 -33 -82
-57 -737 -467 -747 -467 -2 0 -36 -19 -77 -43 -152 -90 -427 -225 -563 -277
-33 -12 -68 -26 -77 -31 -63 -31 -373 -106 -518 -124 -220 -27 -618 -28 -775
-1 -16 3 -61 10 -100 16 -85 14 -144 25 -255 51 -167 39 -304 80 -630 189
-447 150 -543 179 -790 240 -126 31 -134 33 -265 56 -115 20 -127 21 -205 29
-36 4 -67 8 -70 10 -9 6 -288 18 -405 19 -120 0 -365 -11 -405 -19 -13 -3 -42
-7 -65 -10 -385 -54 -711 -157 -1027 -324 -91 -47 -102 -54 -233 -140 -86 -56
-161 -110 -239 -171 -121 -94 -334 -300 -462 -445 -43 -49 -81 -92 -84 -95 -3
-3 -37 -45 -76 -95 -284 -361 -546 -778 -656 -1043 -26 -63 -85 -262 -93 -312
-4 -25 -8 -47 -10 -51 -19 -30 -27 -415 -12 -539 25 -198 111 -510 198 -715 7
-16 13 -32 14 -35 3 -8 15 -37 61 -145 45 -106 88 -201 161 -355 25 -52 63
-131 83 -175 21 -44 61 -129 90 -190 29 -60 70 -150 92 -200 22 -49 49 -110
60 -135 46 -102 142 -351 188 -488 92 -279 150 -535 174 -774 3 -32 9 -84 12
-115 8 -72 7 -458 -1 -533 -14 -136 -22 -199 -35 -300 -6 -42 -13 -94 -15
-115 -3 -22 -7 -51 -10 -65 -2 -14 -7 -41 -10 -60 -3 -19 -7 -46 -10 -60 -3
-14 -7 -38 -10 -55 -2 -16 -14 -77 -26 -135 -11 -58 -23 -115 -25 -126 -30
-159 -126 -538 -259 -1019 -82 -298 -203 -770 -219 -855 -2 -14 -9 -47 -16
-75 -6 -27 -14 -68 -16 -89 -3 -22 -7 -43 -9 -47 -3 -4 -9 -38 -15 -75 -5 -38
-11 -78 -14 -89 -2 -11 -7 -45 -11 -75 -4 -30 -9 -62 -10 -70 -5 -26 -14 -103
-21 -175 -3 -38 -8 -78 -10 -89 -6 -32 -18 -327 -17 -441 0 -114 11 -370 18
-440 13 -124 17 -157 26 -230 14 -111 19 -142 29 -205 16 -93 17 -103 35 -185
9 -44 19 -91 21 -105 13 -67 48 -206 75 -300 43 -147 88 -291 98 -315 5 -11
26 -63 46 -115 194 -490 510 -872 933 -1129 338 -206 672 -327 1457 -531 861
-224 1268 -394 1695 -708 246 -181 513 -439 687 -662 227 -292 340 -516 488
-970 136 -417 218 -589 368 -775 79 -98 242 -252 332 -314 303 -210 570 -332
970 -444 80 -23 338 -78 420 -91 27 -4 60 -9 145 -21 14 -2 52 -7 85 -11 33
-3 69 -8 80 -10 39 -7 302 -18 455 -18 142 0 346 9 445 19 22 2 68 7 103 10
35 4 73 8 85 11 12 2 42 7 67 10 399 50 918 210 1320 407 590 288 1039 652
1523 1232 90 108 273 286 411 400 360 295 753 501 1233 644 199 59 516 134
663 156 20 3 45 7 57 9 11 3 38 7 59 11 72 11 99 15 124 20 14 3 39 7 55 9 17
3 86 15 155 26 69 11 141 23 160 26 170 25 538 96 655 126 44 11 88 22 98 23
20 4 31 8 197 61 571 181 1010 491 1366 964 59 78 247 373 331 520 244 426
378 779 430 1130 10 71 10 407 0 485 -24 182 -71 355 -217 793 -108 323 -199
642 -215 754 -4 23 -8 45 -10 48 -2 3 -6 26 -10 50 -3 25 -10 70 -15 100 -5
30 -12 87 -15 125 -4 39 -8 81 -11 95 -5 35 -18 273 -18 350 0 215 53 499 137
730 131 362 295 667 655 1215 58 88 151 230 207 315 464 712 660 1111 770
1575 37 154 40 176 59 349 16 158 12 440 -9 556 -2 14 -7 45 -10 70 -21 157
-86 380 -147 503 -162 327 -491 634 -979 912 -203 115 -576 297 -934 455 -250
110 -539 247 -785 371 -140 70 -266 133 -280 139 -14 5 -32 14 -40 20 -8 5
-111 56 -228 114 -726 360 -1084 596 -1427 940 -177 177 -240 252 -418 499
-67 92 -257 398 -257 413 0 3 -17 36 -39 72 -21 37 -66 121 -101 187 -256 491
-411 722 -632 947 -226 231 -453 389 -765 533 -181 83 -503 201 -604 220 -9 2
-47 12 -85 23 -94 27 -275 69 -354 82 -36 5 -76 12 -90 15 -102 18 -477 27
-600 14z m-1055 -3263 c55 -4 111 -9 125 -11 14 -2 59 -6 100 -10 79 -6 129
-12 195 -21 22 -3 51 -7 65 -9 14 -2 45 -6 69 -10 l43 -7 -6 -42 c-3 -22 -8
-54 -11 -71 -19 -108 -27 -165 -28 -187 -1 -10 -4 -18 -7 -18 -3 0 -6 -10 -6
-22 1 -23 -18 -145 -34 -228 -10 -50 -20 -105 -24 -135 -1 -11 -6 -42 -10 -70
-10 -71 -11 -70 57 -80 15 -3 39 -7 55 -10 15 -4 41 -8 59 -10 17 -2 49 -8 70
-14 21 -5 54 -12 73 -15 19 -3 53 -11 75 -16 22 -6 48 -13 58 -15 10 -2 26 -6
35 -9 9 -3 31 -8 47 -11 34 -7 33 -7 95 -25 25 -7 50 -15 55 -16 31 -8 174
-54 200 -64 17 -6 37 -13 45 -15 19 -4 251 -90 300 -112 19 -8 44 -19 55 -24
11 -4 51 -22 89 -39 38 -16 75 -30 83 -30 8 0 11 -4 8 -10 -3 -5 -2 -10 4 -10
6 0 40 -13 76 -30 36 -16 69 -30 73 -30 4 0 63 112 132 248 69 136 129 250
133 253 5 3 9 12 11 20 1 8 15 39 31 69 16 30 29 58 30 62 0 3 4 10 8 15 5 4
15 23 22 40 11 25 18 31 32 26 30 -10 242 -127 358 -196 48 -28 403 -263 435
-287 19 -14 71 -53 115 -86 81 -60 312 -248 330 -268 6 -6 26 -24 45 -40 19
-15 84 -74 144 -129 l108 -101 -26 -23 c-15 -13 -25 -23 -23 -23 2 0 -93 -99
-212 -219 -119 -121 -237 -242 -263 -269 l-47 -49 47 -51 c109 -118 193 -211
237 -267 17 -21 39 -48 50 -61 11 -13 29 -36 40 -50 11 -14 32 -40 48 -57 15
-17 27 -37 27 -45 0 -7 5 -10 10 -7 6 3 10 1 10 -4 0 -12 87 -131 105 -143 5
-4 6 -8 2 -8 -7 0 -3 -6 28 -43 6 -7 21 -29 34 -50 13 -21 29 -44 37 -52 8 -8
14 -16 12 -17 -1 -2 11 -23 28 -48 17 -25 39 -58 48 -75 9 -16 26 -43 36 -60
11 -16 23 -38 26 -47 4 -10 11 -18 16 -18 5 0 6 -4 3 -10 -3 -5 -2 -10 3 -10
5 0 12 -8 15 -17 4 -10 21 -45 40 -78 18 -33 42 -76 52 -95 11 -19 24 -40 28
-47 6 -9 32 -1 95 30 48 23 88 45 90 50 2 4 8 7 13 7 6 0 37 13 70 29 32 17
59 27 59 23 0 -4 4 -2 8 4 4 6 30 21 57 35 28 13 53 28 57 34 4 5 8 7 8 2 0
-4 35 11 77 33 43 22 83 40 89 40 7 0 14 5 16 11 2 5 10 11 18 13 8 1 35 12
58 25 24 12 45 21 47 19 23 -24 217 -449 289 -633 65 -168 202 -591 221 -685
2 -8 10 -42 19 -75 15 -61 61 -270 70 -322 3 -15 11 -56 17 -90 7 -35 10 -65
8 -68 -3 -2 -21 -6 -39 -9 -19 -3 -45 -7 -56 -10 -12 -2 -37 -7 -55 -10 -19
-3 -45 -8 -59 -11 -14 -3 -42 -7 -62 -10 -20 -3 -56 -9 -80 -14 -24 -6 -67
-13 -96 -16 -29 -3 -65 -10 -79 -16 -14 -5 -28 -8 -30 -5 -3 2 -18 0 -35 -5
-17 -4 -52 -11 -77 -14 -42 -5 -68 -9 -111 -20 -8 -2 -26 -4 -38 -4 -23 -1
-24 -3 -17 -58 3 -32 8 -69 10 -83 8 -56 20 -177 32 -320 10 -129 12 -709 2
-715 -6 -4 -6 -13 1 -24 5 -10 8 -20 6 -22 -4 -4 -15 -111 -21 -204 -2 -28 -6
-73 -10 -100 -13 -100 -14 -111 -18 -142 -2 -18 -1 -33 2 -34 3 0 20 -2 36 -4
17 -2 46 -6 65 -9 31 -6 88 -16 175 -30 17 -3 41 -7 55 -10 14 -3 41 -7 60
-10 44 -6 107 -16 140 -22 14 -3 41 -7 60 -9 19 -3 44 -7 56 -10 12 -2 39 -7
60 -10 21 -3 50 -8 64 -12 24 -6 35 -7 71 -11 14 -2 15 -8 9 -39 -5 -21 -11
-58 -15 -83 -8 -54 -95 -471 -100 -480 -2 -4 -7 -20 -9 -37 -8 -45 -90 -319
-141 -468 -60 -180 -153 -410 -242 -600 -41 -88 -80 -172 -86 -187 -12 -30
-35 -36 -56 -16 -6 7 -15 13 -19 13 -7 1 -79 36 -192 96 -8 4 -49 24 -90 45
-41 20 -78 41 -81 46 -3 5 -9 9 -13 8 -10 -3 -180 83 -184 93 -2 4 -9 7 -17 7
-7 0 -33 12 -59 26 -25 14 -49 23 -54 20 -5 -3 -24 -36 -43 -73 -19 -37 -37
-70 -42 -71 -4 -2 -5 -7 -2 -12 3 -4 -2 -13 -10 -20 -8 -7 -15 -19 -15 -26 0
-8 -5 -14 -11 -14 -5 0 -7 -4 -4 -10 3 -5 3 -10 -2 -10 -4 0 -21 -26 -38 -58
-16 -31 -32 -59 -35 -62 -4 -3 -17 -24 -30 -47 -13 -24 -27 -43 -32 -43 -4 0
-8 -7 -8 -15 0 -8 -5 -15 -12 -15 -6 0 -9 -3 -6 -6 6 -6 -165 -256 -221 -324
-9 -10 -27 -34 -41 -52 -14 -18 -33 -40 -42 -50 -10 -10 -15 -18 -10 -18 4 0
2 -4 -4 -8 -5 -4 -37 -38 -69 -77 -32 -38 -77 -90 -99 -114 -74 -81 -191 -204
-208 -220 -10 -8 -18 -20 -18 -25 0 -5 72 -79 159 -165 379 -371 420 -412 425
-420 4 -5 -23 -38 -58 -73 -98 -97 -132 -128 -371 -337 -171 -150 -538 -410
-785 -558 -214 -127 -260 -153 -276 -153 -7 0 -14 -4 -14 -8 0 -9 -79 -47 -84
-41 -11 13 -154 309 -149 309 3 0 0 7 -7 15 -11 13 -101 190 -105 205 -3 15
-91 186 -98 191 -5 3 -8 9 -8 13 5 38 -8 35 -137 -30 -61 -31 -117 -57 -124
-58 -7 -1 -20 -6 -28 -11 -8 -5 -17 -10 -20 -11 -8 -1 -78 -32 -139 -60 -30
-14 -67 -28 -82 -31 -16 -3 -29 -10 -29 -15 0 -5 -6 -8 -12 -7 -18 2 -58 -12
-58 -20 0 -4 -6 -8 -12 -8 -26 -1 -97 -24 -103 -33 -4 -6 -11 -8 -16 -4 -5 3
-15 2 -22 -3 -12 -9 -89 -34 -117 -38 -8 -1 -28 -8 -45 -14 -16 -7 -45 -15
-63 -18 -18 -3 -35 -9 -38 -14 -2 -4 -11 -6 -19 -2 -8 3 -15 1 -15 -5 0 -6 -8
-9 -17 -7 -10 1 -33 -3 -50 -11 -18 -7 -33 -11 -33 -9 0 2 -15 -1 -32 -7 -18
-5 -42 -11 -53 -13 -11 -2 -51 -10 -90 -18 -38 -9 -83 -18 -100 -21 -16 -3
-41 -7 -55 -10 -33 -7 -77 -15 -122 -22 -31 -5 -36 -10 -31 -28 2 -11 6 -34 8
-51 2 -16 6 -42 9 -57 9 -42 14 -69 20 -108 3 -19 8 -46 11 -60 4 -14 8 -36 9
-50 2 -14 13 -81 26 -150 12 -69 23 -135 25 -147 7 -50 21 -121 24 -125 1 -2
4 -20 6 -40 3 -28 0 -38 -13 -42 -29 -8 -75 -16 -127 -21 -27 -3 -61 -7 -75
-10 -14 -2 -56 -7 -95 -11 -38 -4 -83 -8 -100 -10 -138 -14 -290 -19 -595 -19
-347 0 -507 7 -680 30 -19 2 -59 7 -89 10 -30 4 -61 8 -70 10 -9 1 -42 6 -74
10 l-58 7 6 37 c3 20 7 48 10 61 3 13 7 42 10 65 4 22 9 54 12 70 3 17 7 40 8
52 2 12 6 34 9 50 9 43 18 95 21 123 2 14 8 54 15 90 6 36 13 79 16 95 2 17 7
41 10 53 18 82 22 146 9 150 -5 2 -18 8 -29 14 -14 7 -17 7 -11 -2 6 -9 2 -9
-14 -1 -11 7 -21 10 -21 7 0 -2 -19 1 -42 6 -24 5 -54 11 -68 13 -22 3 -56 10
-155 30 -11 3 -56 14 -100 25 -44 12 -88 23 -99 25 -10 3 -44 12 -75 21 -31 9
-60 17 -66 18 -5 1 -15 5 -21 9 -6 3 -26 9 -45 12 -19 2 -86 23 -149 46 -63
22 -119 42 -125 43 -5 2 -19 7 -30 11 -111 44 -135 53 -135 47 0 -4 -4 -1 -8
6 -5 7 -17 14 -28 16 -11 2 -44 16 -73 30 -30 14 -58 23 -62 20 -5 -3 -9 2 -9
11 0 9 -4 14 -9 11 -5 -3 -60 19 -122 50 -123 61 -113 62 -153 -16 -69 -136
-349 -685 -350 -687 -7 -9 -327 171 -511 286 -177 111 -532 366 -621 446 -7 5
-22 19 -35 29 -79 64 -258 223 -338 301 l-93 91 176 180 c97 98 233 237 302
307 139 141 134 126 69 194 -27 27 -70 75 -162 179 -28 31 -52 61 -148 180
-62 78 -81 102 -103 133 -9 13 -25 32 -34 43 -10 10 -18 22 -18 27 0 5 -6 14
-13 20 -8 6 -40 50 -72 98 -33 49 -63 90 -67 91 -4 2 -8 8 -8 13 0 6 -8 22
-18 37 -68 99 -95 143 -117 190 -8 17 -20 32 -25 32 -6 0 -10 8 -10 18 0 10
-5 23 -11 29 -12 12 -59 97 -92 165 -12 26 -27 48 -34 48 -7 0 -32 -11 -57
-24 -26 -14 -46 -22 -46 -19 0 4 -9 -2 -21 -13 -12 -10 -23 -18 -25 -16 -2 1
-66 -28 -142 -65 -75 -37 -140 -68 -144 -68 -3 0 -10 -4 -15 -8 -7 -7 -208
-108 -223 -112 -3 0 -29 -13 -58 -29 -30 -15 -55 -26 -57 -24 -11 11 -122 249
-180 383 -149 348 -289 774 -350 1068 -2 10 -6 26 -9 35 -3 9 -8 31 -10 47 -3
17 -10 50 -15 75 -5 25 -14 70 -20 100 -6 30 -14 76 -17 103 -6 46 -6 47 22
49 55 3 69 5 84 11 8 3 31 8 50 11 19 3 46 8 60 11 13 2 40 7 60 10 20 3 47 7
60 10 13 3 40 7 60 10 20 3 47 8 60 10 14 3 39 7 55 10 17 3 53 10 80 15 28 5
66 12 85 15 35 5 101 15 123 19 25 4 36 17 31 39 -3 12 -7 38 -9 57 -2 19 -6
49 -9 65 -8 49 -19 165 -33 355 -14 203 -7 717 12 885 3 22 7 63 9 90 2 28 7
66 10 85 13 81 15 120 6 125 -5 3 -29 8 -52 10 -24 2 -43 4 -43 5 0 1 -9 3
-20 5 -32 6 -97 16 -130 21 -56 9 -80 13 -105 18 -13 3 -39 7 -57 8 -18 1 -33
5 -33 8 0 3 -10 5 -22 6 -13 0 -43 4 -68 8 -25 4 -55 9 -68 11 -22 3 -147 23
-187 30 -42 7 -55 17 -50 39 2 11 14 73 26 136 11 63 23 126 26 140 69 368
248 932 405 1280 67 146 158 330 164 330 4 0 45 -20 93 -44 47 -24 175 -89
284 -145 109 -55 204 -104 210 -108 7 -4 18 -8 25 -9 8 -2 21 -9 30 -16 10 -8
37 -23 62 -33 25 -11 48 -23 51 -28 7 -10 11 -5 52 72 56 106 84 156 125 225
23 37 42 70 42 71 0 6 183 280 190 285 4 3 13 16 20 29 13 25 23 39 50 69 8
10 26 33 40 52 13 19 27 37 30 40 3 3 18 23 35 45 33 45 69 88 103 122 12 13
22 27 22 31 0 5 13 19 30 32 16 14 29 28 30 33 0 4 17 24 38 46 20 21 76 80
124 130 l88 92 -193 192 c-105 106 -193 191 -195 191 -2 -1 -30 27 -63 62 -32
35 -59 62 -59 60 0 -2 -22 19 -50 47 -27 28 -50 52 -50 55 0 9 197 195 305
287 39 33 72 62 75 65 77 77 374 299 610 458 160 107 523 318 592 344 21 9 22
8 93 -142 33 -69 63 -126 68 -128 4 -2 7 -9 7 -15 1 -7 54 -119 118 -249 l118
-237 80 39 c137 67 255 120 265 120 5 0 9 5 9 12 0 6 3 9 6 5 6 -6 142 49 158
63 5 5 15 6 22 3 8 -3 14 0 14 6 0 6 6 11 13 11 7 0 42 12 78 26 35 14 71 27
79 29 8 2 55 18 103 34 49 17 92 31 97 31 5 0 21 5 37 12 15 6 37 13 48 15 11
2 31 8 45 13 14 6 34 12 45 15 11 2 60 15 108 29 48 14 104 27 124 31 19 3 39
8 44 11 9 5 28 10 84 20 17 3 57 11 90 18 l60 12 -2 38 c0 21 -7 42 -15 47 -8
5 -9 9 -2 9 8 0 9 11 4 38 -14 60 -20 94 -25 137 -6 44 -12 80 -15 80 -1 0 -3
11 -5 25 -2 14 -10 68 -20 120 -9 52 -18 105 -20 117 -2 12 -6 35 -10 52 -3
16 -8 44 -10 61 -2 17 -7 49 -10 70 -4 29 -2 40 7 41 7 0 20 2 28 3 36 8 232
32 320 41 30 3 75 7 100 10 25 3 92 7 150 10 57 4 106 7 107 8 5 6 607 -1 698
-7z"/>
</g>
</svg>
